/* XPM */
static char *_a664e08e52248ac828fad9e05ab509ek95cGanKN4Tmdr2i[] = {
/* columns rows colors chars-per-pixel */
"50 50 6 1 ",
"  c #63A849",
". c #3F7B52",
"X c #5DA04A",
"o c #438151",
"O c #55964C",
"+ c #4A894F",
/* pixels */
"                                     X..oX        ",
"                                     X..oX        ",
"        X                            Xo.oX        ",
"      OooO                            XXX         ",
"      +..O                                        ",
"      +..O                                        ",
"      +..O            +++X                        ",
"      +..O           Xo..O                        ",
"      +..O            o..X                        ",
"      XOOX           Xo..X                        ",
"                      o..X                        ",
"                     Xo..O                        ",
"                      OOOX                        ",
"                                                  ",
"                                                  ",
"                                            OOOX  ",
"                                            +..O  ",
"                                            o..O  ",
"                                            +..O  ",
"                                            o..O  ",
"                                            +..O  ",
"                XXX                         +ooX  ",
"               Xo.+X                              ",
"               X..oX                              ",
"               X..oX            XXX               ",
"               X..oX           Ooo+               ",
"               X..oX           O..+               ",
"               Xo.+X           O..+               ",
"                XXX            O..+               ",
"                               O..+               ",
"                               O..+               ",
"                               XOOX               ",
"                                                  ",
"                                                  ",
"   O++X                                           ",
"   o..O                                           ",
"   +..O                                           ",
"   o..O                                           ",
"   +..O                                           ",
"   o..O                                           ",
"   O++X                                           ",
"                                                  ",
"                                                  ",
"                   XOX                            ",
"                  Xo.oX                           ",
"                  Xo.oX                           ",
"                  Xo.oX               XXX         ",
"                  Xo.oX              Xo.oX        ",
"                  Xo.oX              X..oX        ",
"                  Xo.oX              X..oX        "
};
