/* XPM */
static char *_e94a391a82f4938da37e03f5f08b9fbPdCl82eWPf5jxSMO[] = {
/* columns rows colors chars-per-pixel */
"50 50 14 1 ",
"  c #63A849",
". c #61A649",
"X c #C6D167",
"o c #3E7A52",
"O c #3F7C52",
"+ c #53944D",
"@ c #4D8D4E",
"# c #478550",
"$ c #6CAC4C",
"% c #7BB250",
"& c #B8CB62",
"* c #8FBA56",
"= c #5A9D4B",
"- c #A8C45D",
/* pixels */
"                                                  ",
"                                                  ",
"                         $$$$$$                   ",
"                        $-&&&&&%.                 ",
"                        $&XXXXX*.                 ",
"                        $&XXXXX*.                 ",
"                     $---XXX*%%$                  ",
"                    .%&XXXXX%..                   ",
"                     $&XXXXX%.                    ",
"  .+@@@@@=          .%&XX***$           =@@@@@@.  ",
"  .#ooooo+           $&X&$..            =OooooO.  ",
"  .#ooOOO+          .%&XX%              =OOOooO.  ",
"  .+++#OO#++=        $***$           =++@OOO@++.  ",
"      #oOOoo@          ..            +ooOOo#.     ",
"     .#ooOOo@                        +OOOoo#.     ",
"      +@@#Oo@                        +OOO@@+.     ",
"         @oo@                        +Oo#.        ",
"         @oo@                        +oo#.        ",
"         +##+                        =##+.        ",
"           .                           ..         ",
"..                                              ..",
"%%%                                            $%%",
"X&&%                                          $&XX",
"XXX%.                                         $&XX",
"XXX%$$      .......                           $-&&",
"XXX&&&%.    +OOOOO@.                           $$$",
"XXXXXX%.    +ooOOo#.                              ",
"X&XXXX%.    +OOOOo#...          $$$$$             ",
"%%%&XX%.    .==+OOO###.        *&&&&&*            ",
".. &XX%.       =OOOoo#.        -XXXXX-            ",
"  $&XX%.       =OOOOO#.        -XXXXX-            ",
"   %%%$       ..==+Oo#.    $*--&XX-%%$            ",
"   ...            =Oo#.     &XXXXX*..             ",
"                  =Oo#.     -XXXXX*.              ",
"                  .++=.     -XX-**%               ",
"                           $-XX%..                ",
"                            &XX*.                 ",
"      ++++++=               ***%     =++++++.     ",
"     .#ooooo@                ..      +ooooo#.     ",
"      #ooOOo@                        +OOOoo#.     ",
"      +@@#OO#++=                  =++@OOO@@+.     ",
"         @oOOOo@                  +oOOOO#.        ",
"         @ooOOo@                  +oOOoo#.        ",
"         +###Oo@                  +oOO##+.        ",
"          . +oo@                  +oo@...         ",
"            +oo@                  +oo@            ",
"            +##@                  +##+            ",
"            ....                  ....            ",
"                                                  ",
"                                                  "
};
