/* XPM */
static char *_ce880d2d5d14227cdc3e435da4e1c8e6ceEF5rGPft724Zo[] = {
/* columns rows colors chars-per-pixel */
"50 50 6 1 ",
"  c #63A849",
". c #3F7B52",
"X c #50914D",
"o c #49874F",
"O c #60A44A",
"+ c #589B4B",
/* pixels */
"                                                  ",
"                                                  ",
"         OOOOOOO                     OOOOOOO      ",
"         X.o...X                     +.o...oO     ",
"         o.....X                     X.....oO     ",
"         o.....XOO                 O X.....oO     ",
"         O++o...ooX               Xoo...o++O      ",
"            X.....o               X.....o         ",
"            X.....o               X.....o         ",
"  OXooooo+  O+++++XooX         XooX++++++  Ooooooo",
"  O......+        +..oO        o..X        +......",
"  O......+        +..oO        o..X        O......",
"  OXXX...oXXXXX+  OXX+         +XX+  +XXXXXo...XXX",
"     Oo........X                     X.........O  ",
"      o........X                     +.........O  ",
"     OXXoXoXoXoX+X+               OX+XoXoXoXoXXO  ",
"               X..o               X..X            ",
"               X..o               X..X            ",
"               +ooX               XooX            ",
"                                                  ",
"                                                  ",
"                                                  ",
"                                                  ",
"                                                  ",
"                                                  ",
"                                                  ",
"                                                  ",
"                                                  ",
"                     OooooooO              Ooooooo",
"                     +......+              +......",
"                     O......O              O......",
"XXXO              +XXo...X++O              O++X...",
"...O              +......O                    O...",
"...O              +......O                    O...",
"XXXXXXO        +XXXXXXXXX   +XXXXX+  +XXXXX+  OXXX",
"  O...+        X..o        Oo.....X  X.....oO     ",
"  O...O        +..o         o.....X  X.....oO     ",
"  OXooO        +ooX  O++++++...ooo+  +ooo...++++++",
"                     +.........+        +.........",
"                     O.........+        +.........",
"++O               O+O+ooooooooo+        +ooooooooo",
"..oO              +..oOOOOOOOOO          OOOOOOOOO",
"...O              +..oO                           ",
"o.oO              +..oO                           ",
"OOO                OOO                            ",
"                                                  ",
"                                                  ",
"                                                  ",
"                                                  ",
"                                                  "
};
