/* XPM */
static char *result[] = {
/* columns rows colors chars-per-pixel */
"50 50 22 1 ",
"  c #697096",
". c #0E1117",
"X c #3A435B",
"o c #5B6286",
"O c #2F384C",
"+ c #313A50",
"@ c #666D92",
"# c black",
"$ c #434C71",
"% c #A2A6C0",
"& c #60688C",
"* c #283041",
"= c #212836",
"- c #9499B3",
"; c #181C27",
": c #495277",
"> c #414A6C",
", c #7C829D",
"< c #4A526E",
"1 c #3F4865",
"2 c #717798",
"3 c #4F5777",
/* pixels */
"##########################..............##########",
"##########################;OOOOOOOOOOOO=##########",
"##########################;OOOOOOOOOOOO=##########",
"###################.###.##*XXXXXXXXXXXX*##########",
"################;****O****&------------2*O*#######",
"################;+O+OOO++O2%%%%%%%%%%%%,++*#######",
"################;++++++++O2%%%%%%%%%%%%,+O*#######",
"#############;==<,,,,,2,,,-%%%%%%%%%%%%,11X===.###",
"#############*+O@%%%%%%%%%%%%%%%%%%%%%%,$$>+++.###",
"#############*OO@%%%%%%%%%%%%%%%%%%%%%%-$$>+O+.###",
"##########..;X>>@---%%%%%%%%%%%%%%%%-,, $$>+OO.###",
"#########.OO+o    @,%%%%%%%%%%%%%%%%@$:$$$>+O+.###",
"#########.OO+o     ,%%%%%%%%%%%%%%%%@$$$$$>+OO.###",
"#########.OO+o    @,--%-%-%%%%%%%---&$$$$$>+O+.###",
"#########.OO+o      222222-%%%%%-o33:$$$$$>+OO.###",
"#########.OO+o           @-%%%%%%3$$$$$$$$>+O+.###",
"#########.O++o            ,%%%%%-3$$$$$$$$>+OO.###",
"######.==O3oo@            ,,,2&&&:$$$$$$$$>+O+.###",
"######;+OX@                  &$$>$$$$$$$$$>+OO.###",
"######;+OX@                  &$$$$$$$$$$$$>+O+.###",
"######;+OX@        @ooo@     &$$$$$$$$$$$$$XXX=;;.",
"######;+OX@        &$$$&     &$$$$$$$$$$$$$$$$XO+=",
"######;OOX@        &$$$@     &$$$$$$$$$$$$$$$$XO+=",
"###.#.=XX>@        &:::@     &$$$$$$$$$$$$$$$$XO+=",
"###=OO>@@@          @@@      &$$$$$$$$$$$$$$$$XO+=",
"###=+O<                      &$$$$$$$$$$$$$$$$XO+=",
"###=+O<                      &$$$$$$$$$$$$$$$$XO+=",
"###=+O<                      @&&o:$$$$$$$$$$$$XO+=",
"###=+O<                         @:$$$$$$$$$$$$XO+=",
"###=OO<                         @:$$$$$$$$$$$$XO+=",
";;;X<<o  @ooo@     @oooooo&     @:$$$$$$$$$$$$XO+=",
"+++o     &$$$&     &$$$$$$o     @:$$$$$$$$$$$$XO+=",
"+++o     &$$$&     &$$$$$$o     @:$$$$$$$$$$$$XO+=",
"***3&oo&oo::3&     @:::$$$o     @:$$$$$$$$$>>>+**;",
"###*+++++1@@@       @ @:$$o     @:$$$$$$$$>+++;###",
"###=+O++OX@           @:$$o     @:$$$$$$$$>+OO.###",
"###=OOOOOX@@@         @:$$o     @:$$$$$$$$>+OO.###",
"###......;X11&         @&&@     @:$$$$$>+++...####",
"#########.OO+o                  @:$$$$$1OO*#######",
"#########.O++o                  @:$$$$$1++O#######",
"##########;;;13<o               @:$$1XXO;;;#######",
"#############*OO<               @:$$XO+=##########",
"#############*+O3               @:$$XO+=##########",
"#############;**1oooooo@        @$1>O**;##########",
"################;+++++X&        @XO+;#############",
"################;+O+OO+&        @XOO;#############",
"################;OOOOO+o@@@@@@@@&XOO.#############",
"#################..#...+XXXXXXXXX...##############",
"#######################*OOOOOOOO*.################",
"#######################*+OOOOOOOO#################"
};
