/* XPM */
static char *result[] = {
/* columns rows colors chars-per-pixel */
"50 50 22 1 ",
"  c #A85339",
". c #321F23",
"X c #45292C",
"o c #28191D",
"O c #CD743A",
"+ c #3E262C",
"@ c #0E090A",
"# c black",
"$ c #7B3C38",
"% c #3B252B",
"& c #A25138",
"* c #1D1215",
"= c #753B34",
"- c #964C37",
"; c #834336",
": c #6A3832",
"> c #AF5D38",
", c #C06A39",
"< c #502E2E",
"1 c #8D4737",
"2 c #5D3230",
"3 c #B96339",
/* pixels */
"##################################################",
"##################################################",
"###################@@@@@@@@@@@@@@@@###############",
"##################@.%%%%%%%%%%%%%%o###############",
"##################@%+%%%%%%%%%%%%+o###############",
"################@#@XX<<<<<<<<<<<X<.@#@#@##########",
"###############@..X--&3,,,,,,,,>-&$%..%..#########",
"###############@%%<& >,OOOOOOOO3  ;+++++%#########",
"###############@XX<&  ,OOOOOOOO3  1XXXXX%@########",
"############@..<>>3,,,>>>>>>>>>   &-1->>&+..@#####",
"############*+%:OOOOOO>              >OO,<+%@#####",
"############*+%:OOOOOO>              >OO,<%%@#####",
"###*oooooooo<;;-OOOOOO,,,>  3,,,,,,,,,>3 <%%.oo@##",
"###.++++++++:  >OOOOOOOOO>  ,OOOOOOOO,  -X%++++@##",
"###.%%%%%%+%:  >OOOOOOOOO>  ,OOOOOOOOO  -X%+%%%@##",
"**o=111112%%:   333333OOO,33,OOOOO,&&&11;X%+:==%**",
"++X>OOOOO;%%:      &  ,OOOOOOOOOOO>$$$$$=X%X-  :%+",
"++X>OOOOO;%%:         OOOOOOOOOOOO3$$$$$=X%X-  2++",
"ooo;--,OO;%%:         3,,>>>>>>>>>-$$$$$=X%+:;$Xoo",
"###.+%&OO;%%:            ;$$$$$$$$$$$$$$=X%++++@##",
"###.++&OO;%%:            ;$$$$$$$$$$$$$$=X%++++@##",
"###.++-,,;%%:            1;;;$$$$$$$$$$$=X+%.oo@##",
"###.++;  :%%:               1$$$$$$$$$$$=X+%@#####",
"###.++;  :%%:               1$$$$$$$$$$$=X+%@#####",
"###o..=--=<<=               1$$$$$$$$$$$=X+%@#####",
"######.XX=&&&               1$$$$$$$$$$$=X+%@#####",
"######o+%=                  1$$$$$$$$$$$=X+%@#####",
"####@#.XX= &&&&&      &&&   1$$$$$$$$$$$=X+%@#####",
"###o..=--1;;:<<:     &1;;&  &&&1$$$$$$$$=X+%@#####",
"###.++;  1$$2%%2     &;$$-     -$$$$$$$$=X+%@#####",
"###.++;  1$$2+%2     &;$$-     -$$$$$$$$=X+%@#####",
"oo.2::$;;:<<X+%2     &;$$2221  -$$$$$$$$=X+%@#####",
"+++:$$$$$2%%%+%2     &;$$<%%$  -$$$$$$$$=X+%@#####",
"+++=$$$$$2%+++%2      ;$$<%+$  -$$$$$$$$=X%%@#####",
"+++<<2<2<.**o+%2  &1112<<o**X::$--------1:22.oo@##",
"++++%%%%+*##*+%2  &$$=X%%@##o+%:        &;$$<++@##",
"+++++++++*##*%%2  &$$=X+%@##o++:         ;$=X%%@##",
"**o***o*****%::=1-1222o**@##@**X========$111:22.**",
"#########*+%:  &$$=+%%@########*%++++++%X-  ;$$<++",
"#########*%%:  &$$=X+%@########*++++++++<-  ;$$<%+",
"######@@@%22=--1::2.oo#########@oooooooo.=;;1112%+",
"######o+%=  -$$:++.######################%+X1  2%+",
"######o++=  -$$:++.######################.+X-  2%+",
"######*..2--;::2..o#####################@o..$-1<..",
"#########oXXX+X.############################.XX*##",
"#########*+++++o############################.++@##",
"#########*%...%o############################o%.@##",
"############@@################################@###",
"##################################################",
"##################################################"
};
