/* XPM */
static char *result[] = {
/* columns rows colors chars-per-pixel */
"50 50 8 1 ",
"  c black",
". c #6A2800",
"X c #663931",
"o c #8F563B",
"O c #DF7126",
"+ c #DC732D",
"@ c #E1E1E1",
"# c white",
/* pixels */
"                                                  ",
"                                                  ",
"                                                  ",
"                                                  ",
"                                                  ",
"                                                  ",
"                                                  ",
"                                                  ",
"                                                  ",
"             ...                     ......       ",
"            ...O.                  ..######..     ",
"            .o.OO.               ..#########...   ",
"           .ooo.OO.             .O########..      ",
"           .ooo..OO.           .OO#######.        ",
"          ...ooo.OOO.          .OOO#####.         ",
"         ..O.ooo.OOOO.        .OOOO####.          ",
"         .OO.ooo.OOOOO.       .OOOOOO##.          ",
"         .O.O.oo.OOOOOO.     .OOOOOOOOO.          ",
"         ..OOOoXOOOOOOO.     .OOOOOOOOOO.         ",
"         .OOOOOOOOOOOOOO.    .OOOOOOOOOOO.        ",
"        .OOOOOOOOOOOOOOO.    .OOOOOOOOOOO.        ",
"        .OOOOOOOOOOOOOOOO.   .OOOOOOOOOOOO.       ",
"        .OOOOOOOOOOOOOOOO.   .OOOOOOOOOOOOo.      ",
"       .OOOOOOOOOOOOOOOOO.    .OOOOOOOOOOOo.      ",
"       .OOOOOOOOOOOOOOOOO.    .OOOOOOOOOOOoo.     ",
"      .OOO...OOOOOOOOOOOO.     .OOOOOOOOOOOoo.    ",
"   .. .OOO...OOOOOOOOOOOO. .......OOOOOOOOOoo.    ",
"   ...OOOOOOOOOOOOOOOOOOO..OOOOOOO.OOOOOOOOoo.    ",
"    .##OOOOOOOOOO####OOOOOOOOOOOOOO.oOOOOOOoo.    ",
"     .@###OOO##########OOOOOOOOOOOOO.ooOOOooo.    ",
"      ..@#############OOOOOOOOOOOOOO.ooooooo.     ",
"        ..@@@@####@@@OOOOO+OOOOOOOOOO..oooo..     ",
"          ...@@@@....OOOO++OOOOOOOOOO......       ",
"             ....   .O++++OOO#.OOOOOO.            ",
"                    .O+++.####.OO+O+O..           ",
"                    .OO++.......OO++o.+.          ",
"                   .OOO++..    ..o++o.o.          ",
"                   .OOoo.oo.     .++o.o.          ",
"                  .oooo..oo.     .ooo...          ",
"                  .oo..  ...     .oo..            ",
"                   ..             ...             ",
"                                                  ",
"                                                  ",
"                                                  ",
"                                                  ",
"                                                  ",
"                                                  ",
"                                                  ",
"                                                  ",
"                                                  "
};
