/* XPM */
static char *result[] = {
/* columns rows colors chars-per-pixel */
"50 50 9 1 ",
"  c black",
". c #6A2800",
"X c #663931",
"o c #8F563B",
"O c #DF7126",
"+ c #DC732D",
"@ c #FB8738",
"# c #E1E1E1",
"$ c white",
/* pixels */
"                                                  ",
"                                                  ",
"                                                  ",
"                                                  ",
"                                                  ",
"                                                  ",
"                                                  ",
"                              .......             ",
"                            ..$$$$$$$..           ",
"               ..         ..$$$$$$$$$$$.          ",
"              .....       .$$$$$$$$$$..           ",
"              .o....     .OO$$$$$$$..             ",
"             .ooo.@X.   .OO@@$$$$$.               ",
"            ..ooo.O@X.  .O@@@O$$$.                ",
"           .O.oooo.@O.. .O@@@OO$$.                ",
"          .O@.oooo.@OO..O@@@OOOO$.                ",
"          .O@.ooooOOOO..O@@@OOOO.o...             ",
"          .OO.ooo.OOOOO.OO@@OOOO.oooo...          ",
"          .O.O.oo.OOOOO.OOO@OOOOO.oooooo..        ",
"          ..OOOoXOOOOOO.OOOOOOOOO.ooooooO..       ",
"          .OOOOOOOOOOOOO.O+OO++OOO..ooooooO.      ",
"         .OOOOOOOOOOOOOO.OOOOO++++OO...oooOO.     ",
"         .OOOOOOOOOOOOOOO.OOOOOOOOOOOO..oooOo.    ",
"         .OOOOOOOOOOOOOOO.OOOOOOOOOOOOO.oooOo.    ",
"        .OOOOOOOOOOOOOOOOO.OOOOOOOOOOOOO.oo@o.    ",
"        .OOOOOOOOOOOOOOOOO.OOOOOOOOOOOOO.ooOoo.   ",
"       .OOOOOOOOOOOOOOOOOO..OOOOOOOOOOOO.oOOoo.   ",
"    .. .OOO...OOOOOOOOOOOO. ..OOOOOOOOO.OOOOoo.   ",
"    ...OOOOOOOOOOOOOOOOOOO..OO.OOOOOOOOoOOOOoo.   ",
"     .$$OOOOOOOOOO$$$$OOOOOOOOO..OOOOOOOOOOoo.    ",
"      .#$$$OOO$$$$$$$$$$OOOOOOOOO.OOOOOOOOoo.     ",
"       ..#$$$$$$$$$$$$$OOOOOOOOOOO..OOOOooo.      ",
"         ..####$$$$###OOOOO+OOOOOOOO..oooo.       ",
"           ...####....OOOO++OOOOOOOOO.....        ",
"              ....   .O+O+++.O$.OOOO+..o.         ",
"                    ..OOO++.$$$.OO+O+o.oo.        ",
"                  ...OOO+++......OO++o.o..        ",
"                 ..oOOOO++.ooo.  ..o+oo..         ",
"                ..oo++oo......     .ooo.          ",
"                ..oooo..           .ooo.          ",
"                 ....               ...           ",
"                                                  ",
"                                                  ",
"                                                  ",
"                                                  ",
"                                                  ",
"                                                  ",
"                                                  ",
"                                                  ",
"                                                  "
};
