/* XPM */
static char *result[] = {
/* columns rows colors chars-per-pixel */
"50 50 9 1 ",
"  c black",
". c #682700",
"X c #6A2800",
"o c #663931",
"O c #8F563B",
"+ c #DF7126",
"@ c #FB8738",
"# c #E1E1E1",
"$ c white",
/* pixels */
"                                                  ",
"                                                  ",
"                                                  ",
"                                                  ",
"                                                  ",
"                                                  ",
"                                                  ",
"                                                  ",
"                                                  ",
"                              XXXXXXX             ",
"                            XX$$$$$$$XX           ",
"               XX         XX$$$$$$$$$$$X          ",
"              XXXXX       X$$$$$$$$$$XX           ",
"              XOXXXX     X++$$$$$$$XX             ",
"             XOOOX@oX   X++@@$$$$$X               ",
"            XXOOOX+@oX  X+@@@+$$$X                ",
"           X+XOOOOX@+XX X+@@@++$$X                ",
"          X+@XOOOOX@++XX++@@++++$X                ",
"          X+@XOOOO++++XX++@@++++XOXXX             ",
"          X++XOOOX+++++X++@@++++XOOOOXXX          ",
"          X+X+XOOX+++++X++@@+++++XOOOOOOXX        ",
"          XX+++Oo++++++X+++++++++XOOOOOO+XX       ",
"          X++++++++++++X++++++++++XXOOOOOO+X      ",
"         X++++++++++++++X+++++++++++XXXOOO++X     ",
"         X++++++++++++++X+++++++++++++XXOOO+OX    ",
"         X+++++++++++++++XX++++++++++++XOOO+OX    ",
"        X+++++++++++++++++XX++++++++++++XOO@OX    ",
"        X++XX$++++++++++++X XXX+++++++++XOO+OOX   ",
"       X+++XXX++++++++++++X    XX+++++++XO++OOX   ",
"    XX X+++XXX++++++++++++X .XXX X+++++X++++OOX   ",
"    XXX+++++++++++++++++++XX+++XXXXX+++O++++OOX   ",
"     X$$++++++++++$$$$+++++++++++++XX++++++OOX    ",
"      X#$$$+++$$$$$$$$$$++++++++++++X+++++OOX     ",
"       XX#$$$$$$$$$$$$$++X++++++++++XX+++OOX      ",
"         XX####$$$$###++OX+++XXXX+++OX+OOOX       ",
"        XOOXXX####XXX+++OX++XX++++++OXXXXX        ",
"       XOOXX+++XXX+++++OX$$XX+++++++OXX           ",
"       XOOXO+++++++++++OXX$X+++++++OOX            ",
"       XOOXO++++++++++OXOXXX+++OOOOOX             ",
"       XOOXOOO++OOOOOOX XXOOOOOOXXXX              ",
"        XXXXXOOOOXXXXX   XXXXXXX                  ",
"             XXXX                                 ",
"                                                  ",
"                                                  ",
"                                                  ",
"                                                  ",
"                                                  ",
"                                                  ",
"                                                  ",
"                                                  "
};
