/* XPM */
static char *result[] = {
/* columns rows colors chars-per-pixel */
"50 50 20 1 ",
"  c #A2A6BF",
". c #434C71",
"X c #6E7499",
"o c #353E54",
"O c #999DB8",
"+ c #30384C",
"@ c #2B3345",
"# c black",
"$ c #697096",
"% c #07090C",
"& c #646B90",
"* c #424A5F",
"= c #485176",
"- c #414A6E",
"; c #777D9E",
": c #232A39",
"> c #878CA4",
", c #9095AF",
"< c #555D7C",
"1 c #101218",
/* pixels */
"##################################################",
"##################################################",
"##################################################",
"##################################################",
"##################################################",
"##################################################",
"##################################################",
"##################################################",
"##################################################",
"################%%%%%%%%%%%%######################",
"###############%@@@@@@@@@@@:######################",
"###############%@++++++++++:######################",
"##########%%%%%1***********+%%%%%%################",
"#########%@@@@@*,OOOOOOOOOO>+@@@@:################",
"#########%@++++*O          >o++++:################",
"#######%%1*****<O          ,*****+%%%#############",
"######%@@*,OOOOO            OOOOO;+@:#############",
"######%@+*O                      >o+:#############",
"######%@+*,OO      OOO           >**+%%%##########",
"######%@+o$X;     OXX;            OO;+@:##########",
"######%@+o&$;     OX$;              >o+:##########",
"####%%1**.X;;OOO  OX$;OOOOOO        >**+%%%#######",
"###%@@*,OOO OXX;  OX$$XXXXX;         OO;+@:#######",
"###%@+*O    OX$;  OX$$$$$$$;           >++:#######",
"#%%1**<O    O;X;  O;;X;XX$$;OOOOOO     >**+%%%####",
"%@@*,OO      O      O O ,X$$XXXXX;      OO;+@:####",
"%@+*O                   OX$$$$$$$;        >++:####",
"%@+*,OOOOOOOOOOOOOO   OO,$$$$$$$$;OOOOOO  >**o1%%#",
"%@+o$XXXXXXXXXXXXX;  OXXX$$$$$$$$$XXXXX;   OO>o@:#",
"%@+o&$$$$$$$$$$$$$;  OX$$$$$$$$$$$$$$$$;     ,o+@#",
"%@+o&$$&&&&&&$$$$$XOO,X$$&&&&&&&&&$$$$$;OOOOO>o+:#",
"%@+o&$&======$$$$$$XXX$$&=======.<$$$$$$XXXXX&o+:#",
"%@+o&$&=...-=$$$$$$$$$$$&...-...-=$$$$$$$$$$$&o+@#",
"%@@o&&&.....=&&&&$&$&$&&&........=&&&&&$$$$&&<+@:#",
"#%%1oo*-.....============.........=====<$$<oo+%%%#",
"###%@+o-...............................=$X<++@####",
"###%@@+-----------------------------.--=&&<@@:####",
"####%%1+oooooooooooooooooooooooooooooooooo@%%%####",
"######%@++++++++++++++++++++++++++++++++o+:#######",
"######%@@@@@@@@@@@@@@@@@@@@@@@@@@@@@@@@@@@:#######",
"#######%%%%%%%%%%%%%%%%%%%%%%%%%%%%%%%%%%%%#######",
"##################################################",
"##################################################",
"##################################################",
"##################################################",
"##################################################",
"##################################################",
"##################################################",
"##################################################",
"##################################################"
};
