/* XPM */
static char *result[] = {
/* columns rows colors chars-per-pixel */
"50 50 22 1 ",
"  c #7B3C38",
". c #AA5538",
"X c #713F31",
"o c #231518",
"O c #CC743A",
"+ c #C46E39",
"@ c #3F272C",
"# c #A85339",
"$ c black",
"% c #3A242B",
"& c #0D0809",
"* c #613630",
"= c #954939",
"- c #301D21",
"; c #824235",
": c #532F2E",
"> c #A04F38",
", c #B05D38",
"< c #6C3634",
"1 c #8C4537",
"2 c #884435",
"3 c #411F1D",
/* pixels */
"$$$$$$$$$$$$$$$$$$$$$$$$$$$$$$$$$$$$$$$$$$$$$$$$$$",
"$$$$$$$$$$$$$$$$$$$$$$$$$$$$$$$$$$$$$$$$$$$$$$$$$$",
"$$$$$$$$$$$$$$$$$$$$$$$$$$$$$$$$$$$$$$$$$$$$$$$$$$",
"$$$$$$$$$$$$$$$$$$$$$$$$$$$$$$$$$$$$$$$$$$$$$$$$$$",
"$$$$$$$$$$$$$$$$$$$$$$$$$$$$$$$$$$$$$$$$$$$$$$$$$$",
"$$$$$$$$$$$$$$$$$$$$$$$$$$$$$$$$$$$$$$$$$$$$$$$$$$",
"$$$$$$$$$$$$$$$$$$$$$$$$$$$$$$$$$$$$$$$$$$$$$$$$$$",
"$$$$&&&&&$$$$$$$$$$$$$$$$$$$$$$$$$$$$$$$&&&&&$$$$$",
"$$$$&%@%%&$$$$$$$$$$$$$$$$$$$$$$$$$$$$$$o%@@%&$$$$",
"$$$&o::::o&$$$$$$$$$$$$$$$$$$$$$$$$$$$&$-::::&&$$$",
"$$o%*++++*%o$$$$$$$$$$$$$$$$$$$$$$$$$$o%X+++,:%&$$",
"$$o@XOOOOX@o$$$$$$$$$$$$$$$$$$$$$$$$$$-@2OOO+:@&$$",
"o-X,,OOOO,,X-o$$$$$$$$$$$$$$$$$$$$$$o-;,+OOOO,,:-o",
"-%2OOOOOOOO;%-$$$$$$$$$$$$$$$$$$$$$$%@>OOOOOOOOX%o",
"-@X,+OOOO+,X%%ooooooooooooooooooooo-%@1,+OOOO,,*%o",
"-%X#,OOOO,#<%%%@%@@%@@%@@%@@%@@%@@%%%@;#,OOOO,#*%o",
"-%X#,++++>=;XXXXXXXXXXXXXXXXXXXXXXXX@@;.,+++,>=:%o",
"-%X####>#2 .OOOOOOOOOOOOOOOOOOOOOOO+:%;.#####; :%o",
"-%X######2 >++++++++++++++++++++++++:%;.####>; :%o",
"-%X######2 =.......................>:%;.####>; :%o",
"-%X######2 =#######################>:@;.####>; :%o",
"-%X######2 =#######################>:@;.####>; :%o",
"-%X######2 =#######################>:@;.####>; :%o",
"-%X######2 ;11111111111111111111111;:@;.####>; :%o",
"-%X######2                          @@;.#####; :%o",
"-%X####==; <************************@@;.###==  :%-",
"-%X###>;   :%%%%%%%%%%%%%%%%%%%%%%%%@@;.##>    :%-",
"-%X###>;   <************************@@;.##>    <*:",
"-%X###>;   #O+O+O+O+O+O+O+O+O+O+O+O+:%;.##>    ,O.",
"-%X###>;   #OOOOOOOOOOOOOOOOOOOOOO++:%;.##>    ,O.",
"-%X###>;   =,.,..,..,..,..,..,..,.,#:%;.##>    >,1",
"-%X###>;   =#######################>:@;.##>    =.2",
"-%X###>;   =#######################>:@;.##>    >.2",
"-%X###>;   =#######################>:@;.##>    >.2",
"-%X.>==    2=======================1:@;.>=1    1= ",
"-%X.>                               @@;.=        *",
"-%X.>      <<<<<<<<<<<<<<<<<<<<<<<<<@@;.=      <<:",
"-%X.>      *@@@@@@@@@@@@@@@@@@@@@@@@@@;.=      :@-",
"-%X.>      :%%%%%%%%%%%%%%%%%%%%%%%%%@;.=      :%-",
"-%X.>      *@-&&$&$&$&$&$&$&$&$&$&$&%@;.=      :%o",
"-%X#=      :%-$$$$$$$$$$$$$$$$$$$$$$-@;#=      :%o",
"&&o-3    3oo&&$$$$$$$$$$$$$$$$$$$$$$&&o-:   X-o&&&",
"$$$$o    o$$$$$$$$$$$$$$$$$$$$$$$$$$$$$$3   <&$$$$",
"$$$$&3333&$$$$$$$$$$$$$$$$$$$$$$$$$$$$$$o3333&$$$$",
"$$$$$$$$$$$$$$$$$$$$$$$$$$$$$$$$$$$$$$$$$$$$$$$$$$",
"$$$$$$$$$$$$$$$$$$$$$$$$$$$$$$$$$$$$$$$$$$$$$$$$$$",
"$$$$$$$$$$$$$$$$$$$$$$$$$$$$$$$$$$$$$$$$$$$$$$$$$$",
"$$$$$$$$$$$$$$$$$$$$$$$$$$$$$$$$$$$$$$$$$$$$$$$$$$",
"$$$$$$$$$$$$$$$$$$$$$$$$$$$$$$$$$$$$$$$$$$$$$$$$$$",
"$$$$$$$$$$$$$$$$$$$$$$$$$$$$$$$$$$$$$$$$$$$$$$$$$$"
};
