/* XPM */
static char *result[] = {
/* columns rows colors chars-per-pixel */
"50 50 20 1 ",
"  c #63A849",
". c #0A0C0E",
"X c #314F4E",
"o c #48854F",
"O c #335653",
"+ c #3D7552",
"@ c #345A54",
"# c black",
"$ c #2C3741",
"% c #3F7B52",
"& c #508F4D",
"* c #376252",
"= c #1E262B",
"- c #2E3F44",
"; c #5CA04A",
": c #3D5A43",
"> c #3D6D50",
", c #56974C",
"< c #252E35",
"1 c #12171A",
/* pixels */
"##################################################",
"##################################################",
"##################################################",
"##################################################",
"##################################################",
"################.................#################",
"###############1$$$$$$$$$$$$$$$$<.################",
"###############1$$$$$$$$$$$$$$$$$.################",
"##########.....=:::::::::::::::::1.....###########",
"#########.$$$$$:                ;X$$$$<###########",
"#########.$$$$$:                ;X$$$$<###########",
"#######11=:::::o                 >:::::11.########",
"######.$$:                            ,-$<########",
"######.$$:                            ;-$<########",
"####11=:>+,,,                       ,,&>>:111#####",
"###.$$:  ;%%o                      ;o%o  ,-$<#####",
"###.$$:  ;%%o                      ;o%o  ,-$=#####",
"####$$-&&&&&,     ;&&;     ,&&;     ,&&&&o-$=#####",
"###.$$-+%o        &%%,     o%%;       ;%%>-$=#####",
"####$$-+%o        &%%,     o%%;        %%>-$=#####",
"#===:*>&,,  ;&&,  ;,,;     o%%;  &&&   ,,&**X===##",
"#$$-+%o     ,%%&           o%%;  o%%;    ;%%>-$$##",
"#$$-+%o     ,%%&           o%%;  o%%;    ;%%>$$$##",
"#$$-**>o&o++>**o     ,o&;  ;,,  ;>**>+%o&o**O$$$##",
"#$$-OO@%%>OOOOO%     &%%,       ;*OOOO@+%+@OX$$$##",
"#$$-OO*+%+@@@@O%     &%%,       ;>@@@@@+%+@OX$$$##",
"#$$-OO@***+>%&&;  &>>+%%ooo;     ,&&++>***@OX$$$##",
"#$$-OOOOO*%%&     oOO>%%%%%,        o%+@OOOOX$$$##",
"#$$-OOO@@*%%o     o@@>%%%%%,       ;o%+@@@OOX$$$##",
"#$$-OO@+++%%%oo&  &++&;;o%%>>>,  &oo%%%++>@OX$$$##",
"#$$-OO*%%%%%%%%&  &%%,  &%%*O@,  o%%%%%%%+@OX$$$##",
"#$$-OO*%%%%%%++o;;&%%&  o%%*@@&;;o++%%%%%+@OX$$$##",
"#$$-OO*%%%%%+@@***>%%%oo%%%+++>***@*+%%%%+@OX$$$##",
"#$$-OO*%%%%%>OOOOO*%%%%%%%%%%%@OOOO@+%%%%+@@X$$$##",
"#<<$XO@+++%%>OO@@@>%%%%%+++%%%*@@@O@+%%++>OOX<<<##",
"#.#.$--@@*%%>OO*++%%%%%%*@@+%%+++@O@+%+@@O--<.#.##",
"###.$$-OO*%%>@O*%%%%%%%%*OO>%%%%%@O@+%+@OX$$<#####",
"####<<$XX@++*XX*++++++++*OO>+++++@XO>+>OXX<<=#####",
"######.$$-@@X$-X@@@@@@@@@OO@@@@@O-$-O@O--<.#######",
"######.$$-O@X$$-OOOOOOOOOOOOOOOOO-$-O@O-$<########",
"######.=<<XX-<<$XXXXXXXXXXXXXXXXX<<<XXX<<=########",
"#########1$$=##1$-$$-$$-$$-$$-$$$.#.<$<.##########",
"#########.$$=##1$$$-$$-$$-$$-$$-$.##<$<###########",
"#########.==1##.=================.##===###########",
"##################################################",
"##################################################",
"##################################################",
"##################################################",
"##################################################",
"##################################################"
};
