/* XPM */
static char *_e2ecd523d234665af926ccd43e107c5bpVK0VXgDBVkd11v[] = {
/* columns rows colors chars-per-pixel */
"50 50 5 1 ",
"  c #63A849",
". c #407C52",
"X c #5B9F4B",
"o c #52934D",
"O c #4A894F",
/* pixels */
"                                                  ",
"                                                  ",
"                                                  ",
"                                                  ",
"                                                  ",
"                                                  ",
"                                        XOOo      ",
"                                        o..O      ",
"                                        o..O      ",
"                                     XOOooooOOo   ",
"                                     o..O  X..O   ",
"                                     O..O  X...   ",
"                                     XooX  Xooo   ",
"                                                  ",
"                                                  ",
"                                                  ",
"                                                  ",
"                                                  ",
"         XXXX                                     ",
"         O..o                                     ",
"         O..o                                     ",
"      XXXO.OoXXX                                  ",
"      O..X  O..o                                  ",
"      ...X  O..o                                  ",
"      O..X  o..o                                  ",
"        X     X                                   ",
"                                                  ",
"                                                  ",
"                                                  ",
"                                                  ",
"                                                  ",
"                                                  ",
"                                                  ",
"                                                  ",
"                        XoOo                      ",
"                        X...X                     ",
"                        X...X                     ",
"                     XoooooooooX                  ",
"                     X...   ...X                  ",
"                     X...   ...X                  ",
"                     XOOo   oOOX                  ",
"                                                  ",
"                                                  ",
"                                           XXXX   ",
"                                           X..O   ",
"                                           X..O   ",
"                                         XXoO.OXXX",
"                                        o..O  X...",
"                                        o..O  X...",
"                                        o..O  X..."
};
