/* XPM */
static char *_b94ad46a7d84dd5b27f1e6e9330743eJboiLw35mL24yQZ0[] = {
/* columns rows colors chars-per-pixel */
"50 50 5 1 ",
"  c #63A849",
". c #3F7B52",
"X c #52934D",
"o c #5DA04A",
"O c #49874F",
/* pixels */
"                                                  ",
"                                                  ",
"                                                  ",
"                                                  ",
"                                                  ",
"                                                  ",
"               oOOX                               ",
"               X..O                               ",
"               o..O                               ",
"            oXXO..O  oXXXo                        ",
"            X.....O  o...o                        ",
"            X.....O  o...o                        ",
"      XXXo  X.....O  o...o                        ",
"      O..X  X.....O  o...o                        ",
"      O..X  X.....O  o..Oo                        ",
"      O..X  X...OOXXXX...o                        ",
"      O..X  X..O  o......o                        ",
"      O..X  X..O  o......o                        ",
"      O..XooXOOX  o...OOOo                        ",
"      O.....X     o..Oo                           ",
"      O.....X     o...o                           ",
"      X.O...X     oO.O                            ",
"       ooO..X      oo                             ",
"         X..X                                     ",
"         X..X                                     ",
"         oooo                                     ",
"                                                  ",
"                                                  ",
"                                                  ",
"                                                  ",
"                                                  ",
"                                     oOOX         ",
"                                     X..O         ",
"                                     X..O         ",
"                                  oXXO..O  oXXX   ",
"                                  X.....O  o...o  ",
"                                  X.....O  o...   ",
"                            oXXo  X.....O  o...o  ",
"                            O..X  X.....O  o..Oo  ",
"                            O..X  X.....O  o...o  ",
"                            O..X  X...OOXooX..Oo  ",
"                            O..X  X..O  o......o  ",
"                            O..X  X..O  o......   ",
"                            O..XooXOOX  o...OOOo  ",
"                            O.....X o   o..Oo o   ",
"                            O.....X     o..O      ",
"                            O.....X     o..O      ",
"                             ooO..X       oo      ",
"                               X..X               ",
"                               O..X               "
};
