/* XPM */
static char *result[] = {
/* columns rows colors chars-per-pixel */
"50 50 41 1 ",
"  c black",
". c #030305",
"X c #252C3C",
"o c #3B4460",
"O c #424B70",
"+ c #A4A8C1",
"@ c #363F56",
"# c #697096",
"$ c #2F384C",
"% c #30394E",
"& c #686F96",
"* c #12151D",
"= c #485073",
"- c #646B90",
"; c #787E98",
": c #1E2431",
"> c #8A8FAC",
", c #9DA1BB",
"< c #171C26",
"1 c #2D3548",
"2 c #293142",
"3 c #07080B",
"4 c #323B50",
"5 c #707696",
"6 c #545C80",
"7 c #60678B",
"8 c #5B6283",
"9 c #454E64",
"0 c #7F85A2",
"q c #0B0D12",
"w c #FFEE8A",
"e c #555D77",
"r c #868BA4",
"t c #4D5579",
"y c #666D83",
"u c #979CB4",
"i c #E7DA99",
"p c #AFAA91",
"a c #CAC193",
"s c #898984",
"d c #9C9A8D",
/* pixels */
"                                                  ",
"                                                  ",
"                                                  ",
"                                                  ",
"                                                  ",
"                                                  ",
"                                                  ",
"                                                  ",
"                     q*****q                      ",
"                    .X%%%%%:                      ",
"                     X%$$$%:                      ",
"                  33q4999992333                   ",
"                 321$0,uuu,511X.                  ",
"                 32%4r+++++;%%X.                  ",
"            .....q$4@r,,,,,;@@13.....             ",
"           *2XXXX18775;;;;;0>>;1XXXXXq            ",
"           <%%4%%@-###&&&&&0++>@%%4%%*            ",
"           <%%%%%@-###&&&&&0++>@%%%%%*            ",
"        <::9;;;;;5=997####&7ee8;;;;;;@::*         ",
"        :4$y+++++u@$%8#####e$19,+++++e$4<         ",
"        :%1y+++++u@1%8&&&&&e$$9,+++++e1$<         ",
"    .*<<@==->>>>>ryyydppppps==er>>>>>5yyo<<*      ",
"    .2%%6###&&&&&5,++iwwwwwa###&&&&&&>++5$4X      ",
"    .2%%8######&#5,++iwwwwwa########&u++5$%X      ",
"    .2%%t77-#####500raiiiiip888&#####0>>8$%X      ",
"    .2%%9OO6#####7@4@r+++++;%%o-####&6==o%%X      ",
"    .2%%oOO8#####7@$4r+++,+;$$o-#####tOOo%%X      ",
"    .X22oOO6-----7o@o0,u,,,;oo9------tOO@22:      ",
"     .33X44o=====t7--#555550uurt=====o44:.3.      ",
"        :%$oOOOOO=-#####&&&0++>=OOOOO@$%<         ",
"        :$1oOOOOO=-&&#####&0,,>=OOOOO@1$<         ",
"        3qq:@@@@@o=tt-#####-88e@@@@@@<qq3         ",
"           <%$$$$4OOO7#####8OOO%$$$%$*            ",
"           <%%%%%4OO=7#####7OOO4%%%%%*            ",
"           q*****<@oot66666=oo%<*****3            ",
"             . . 32%%oOOOOOo$%X. . .              ",
"                 31%4OOOOOOo%42.                  ",
"                 .<::@ooooo%::<.                  ",
"                    .X%%4%4:                      ",
"                    .X4%%%4:                      ",
"                     :XXXXX<                      ",
"                     ......                       ",
"                                                  ",
"                                                  ",
"                                                  ",
"                                                  ",
"                                                  ",
"                                                  ",
"                                                  ",
"                                                  "
};
