/* XPM */
static char *result[] = {
/* columns rows colors chars-per-pixel */
"50 50 55 1 ",
"  c black",
". c #455872",
"X c #4E6782",
"o c #3E445F",
"O c #93E8C1",
"+ c #54A4B6",
"@ c #0B0C10",
"# c #53A2B5",
"$ c #3D425D",
"% c #3B3F5B",
"& c #040507",
"* c #191B26",
"= c #212332",
"- c #13151E",
"; c #404962",
": c #32364D",
"> c #383C55",
", c #5299AD",
"< c #4C6680",
"1 c #4E6983",
"2 c #49627B",
"3 c #529FB2",
"4 c #292D3E",
"5 c #7EC1AA",
"6 c #4F8CA1",
"7 c #FFED8B",
"8 c #8FE2BE",
"9 c #4E6D86",
"0 c #4E748C",
"q c #6C9E97",
"w c #80D3BD",
"e c #94EAC3",
"r c #45546B",
"t c #536C77",
"y c #415068",
"u c #618B8F",
"i c #88D3B5",
"p c #89DBBD",
"a c #5C7F82",
"s c #79CBBC",
"d c #50869B",
"f c #81B8AA",
"g c #70A9A0",
"h c #507C94",
"j c #BAE9AE",
"k c #4A606C",
"l c #6DBEB9",
"z c #FBEA8C",
"x c #60AEB5",
"c c #48788F",
"v c #CEE9A2",
"b c #B7CD9C",
"n c #83C9AE",
"m c #8DB69A",
"M c #609DA3",
/* pixels */
"                                                  ",
"                                                  ",
"                                                  ",
"                                                  ",
"                                                  ",
"                                                  ",
"                                                  ",
"                                                  ",
"                    -======-                      ",
"                    =ooooo;=                      ",
"                    =$$$$$$=                      ",
"                 &&&4rrrrrr4&&&                   ",
"                @:>:uiiiiiiu:>:@                  ",
"                @%o$qeOOOOeq$o%@                  ",
"                @>$%qeOOOOeq%%>@                  ",
"         @******42<<Mssssssgaua4******@           ",
"         -$$$$$$.3++#######lOO8t%$$$$$*           ",
"         -$$$$$%.3#########lOO8t%$$$$$-           ",
"       & *;;;;;;.,333######l88pt;;;;;;* &         ",
"     &4:4k555555g...d+####+dtttg555555k4:4&       ",
"     &:o$aOOOOOe5;%%c+####+c%%o5eOOOOOa$o:&       ",
"     &:$%aOOOOOe5;%%c######c%%;5eOOOOOa%%:&       ",
"  @---y2.uwwwwww5tttqffffffu..2fwwwwwwuttk*--@    ",
"  *$%;6#3#+++++#x888vzzzzz7b333#++++++s88ny%$=    ",
"  =o$;6+########x8OOv777777b##########sOOny$o=    ",
"  =o$;6+########x8OOv777777b##########sOOny$o=    ",
"  =o$o0hh6######,aaamjjjjjjm22<,+#####Mqqu;$o=    ",
"  =o$o2X<h#####+6o%%qeOO8Oeq%%o6+#####h<<2o$o=    ",
"  =ooo21Xh#+++++6o$%qeOOOOeq%%o6++++++hX12o$o=    ",
"  *::>.220,,,,,,6ryyqppppppgkkk6,,,,,,022.>::*    ",
"  &&&@:oor9999990,,,#++++++lppiu999999roo>@&&&    ",
"     &:o$yXXXXXX03+##+++++#lOO8u<XXXXXy$$:&       ",
"     &:o$rX1111X03++#######lOO8uX11111r$o:&       ",
"     &*==:.....r2ddd,#####3xggg<r....r:==*&       ",
"         -$$%$%$;<XXd+####+6<<<;$$%%$$-           ",
"         -$$$$$$;<XX6+#####6XXX;$$$$$$*           ",
"         ->>>>>>o2<<d333333d<<<o>>>>>>-           ",
"         &@@@@@@*o;;20000002;;o*@@@@@@&           ",
"                @%$$.XXXXXX.$$%@                  ",
"                @%oo.111111.oo%@                  ",
"                @444o.....2o444@                  ",
"                    =o$oo$o=                      ",
"                    =o$$$$o=                      ",
"                    =$%%%%$=                      ",
"                    @------@                      ",
"                                                  ",
"                                                  ",
"                                                  ",
"                                                  ",
"                                                  "
};
