/* XPM */
static char *result[] = {
/* columns rows colors chars-per-pixel */
"50 50 72 1 ",
"  c black",
". c #E64A43",
"X c #782650",
"o c #F7FFEC",
"O c #3E2E39",
"+ c #E34740",
"@ c #090608",
"# c #E34A43",
"$ c #402E3A",
"% c #3D2D38",
"& c #040203",
"* c #1B1318",
"= c #30232B",
"- c #C14342",
"; c #281D24",
": c #442D3A",
"> c #110C0F",
", c #3A2A35",
"< c #372832",
"1 c #6D264B",
"2 c #622847",
"3 c #241A20",
"4 c #482E39",
"5 c #1F161C",
"6 c #B44240",
"7 c #EDA596",
"8 c #5B323A",
"9 c #4A3A43",
"0 c #E5544C",
"q c #F4F1DC",
"w c #F4FCE6",
"e c #E4665D",
"r c #EEC7B6",
"t c #52313A",
"y c #D74943",
"u c #D0D4C5",
"i c #D04641",
"p c #EB8E81",
"a c #69333A",
"s c #CB4344",
"d c #57474E",
"f c #C2C4B8",
"g c #44353D",
"h c #73363A",
"j c #83383B",
"k c #5B1F3F",
"l c #5D5056",
"z c #E8F0DC",
"x c #F2D7C4",
"c c #EA8377",
"v c #E7786D",
"b c #95928D",
"n c #BD7A73",
"m c #49323C",
"M c #EA988A",
"N c #E66E65",
"B c #C5958B",
"V c #E1E7D5",
"C c #ACABA1",
"Z c #E87E73",
"A c #EEB1A1",
"S c #913B3D",
"D c #E7BDAD",
"F c #863D40",
"G c #9A5756",
"H c #6C6467",
"J c #692B47",
"K c #DED8C7",
"L c #CCAEA2",
"P c #AE5D5A",
"I c #7D5D5E",
"U c #E626EC",
/* pixels */
"                                                  ",
"                                                  ",
"                                                  ",
"                                                  ",
"                                                  ",
"                                                  ",
"                                                  ",
"                                                  ",
"                                                  ",
"                                                  ",
"                                                  ",
"            >3333333333@                          ",
"            5$$$$$$$$$%>                          ",
"            5%%%OOOOOO%>                          ",
"         @@@=dddttttttt*@@&                       ",
"        @=<=bVVKeiiiiis8<<;                       ",
"        @,$%booqe+###.#aO$=                       ",
"        @<O,booqe+##+++a%O=                       ",
"     >**;jFjnAA70##eMMMGjFa5*********>            ",
"     ;$O8y..#+++##+poowv+.6:$$$$$$$$$5            ",
"     ;$O8y########+poowv+.6:%%OOOOOO$5            ",
"     ;$O8y00######+pqqqvyy6999m4444443&&&         ",
"     ;$%drxxp+#####0NNNF88Iuuun------h===@        ",
"     ;$%lzoo7+######+++a%,Hwoop+.....SO$,@        ",
"     ;$%lzoo7.........#a%,Hwoop+##+++S%O<@        ",
"     *=;gCffn666---6666jhhGDrrv+#0ZccPhha5>>@     ",
"        @%$$$O$:1XX2$$46########+eqww7+#i8%O;     ",
"        @,OOOOO:1XX2OO:6.#######+eqoo7+#y8O$;     ",
"        @,O%OOO:1XX2OO:6.#######+eqww7##y8O$;     ",
"        &>>>;$O:1XX2OOgBrr7######0Zcc7rrDd%$;     ",
"            5$O:1XX2OOgfoox0######+++7oozl%$;     ",
"            5$$:1XX2$Ogfoox0...##...+7oozl%$;     ",
"            *==<kkk4==<CuuL---ssss---Buuf9==5     ",
"             &&&&@&&&&&<999444JXXXm44m99g>&&&     ",
"                       =O%OOOO2XX1:OOO%O,@        ",
"                       =$$OOOO2XX1:OOO$$,@        ",
"                       >**3%OO2XX1:O$=***&        ",
"                          >%OO2XX1:O$5            ",
"                          >%$O2XX1:O$5            ",
"                          ><<<k112,<<*            ",
"                           @@@@@@@@@@&            ",
"                                                  ",
"                                                  ",
"                                                  ",
"                                                  ",
"                                                  ",
"                                                  ",
"                                                  ",
"                                                  ",
"                                                  "
};
