/* XPM */
static char *_0dcbcf4cddf48e9ea8b72ab8c499de6jraJVbzKodJ6LBoE[] = {
/* columns rows colors chars-per-pixel */
"50 50 5 1 ",
"  c #63A849",
". c #3F7B52",
"X c #4A894F",
"o c #5C9F4B",
"O c #52934D",
/* pixels */
"                               X.....O            ",
"                               X.....O            ",
"                               X.....O            ",
"                               ooooooo     oXXX   ",
"                                           o..X   ",
"                                           o...   ",
"XXXo                                 OXXO  o..X   ",
"...o                                 O..X  o...   ",
"...o                                 O..X  o..X   ",
"OOO            oOOO                  oOOOOOX...XOO",
"               O..X                     O.........",
"               O..X                     O.........",
"         oOOo  O..X   OOO               oXXXXOXXOX",
"         X..O  O..X  o...o                        ",
"         X..O  O..X  o...                         ",
"         OXXOooX..X  oXXX      oooo               ",
"            O.....X            X..O               ",
"            O.....X            X..O               ",
"            OXX.X.O      ooo   X..O   ooo         ",
"              o         oX..o  X..O  O..X         ",
"                        o...o  X..O  O..X         ",
"                        oX.XoooX..O oO..O         ",
"                         oooX.X.....XOoo          ",
"                            X........O            ",
"                            .........O            ",
"      XXXo                  oooooooooo            ",
"      X..O                                        ",
"      X..O                                        ",
"XXXo  X..O  OXXO                     OXXO         ",
"...o  X..O  O..X                     O..X         ",
"...o  X..O  O..X                     O..X         ",
"OOOOOO...XOOOOOo                  OOOX..X  oOOO   ",
"   .........O                     X.....X  o..X   ",
"   X........O                     X.....O  o...   ",
"   OXOXXXXXXo                     OXXX..XOOOXXO   ",
"                                     O.....X      ",
"                                     O.....X      ",
"                  oooo               OXXXXXO      ",
"                  o..X                            ",
"                  o..X                            ",
"             ooo  o..X   ooo                      ",
"            O..X  o...  oX..o                     ",
"            O..X  o..X  o...o                     ",
"            O..O  o..Xo oX.Xo       o             ",
"             oo   o....XXooo      O..O            ",
"                  o......o        X..O            ",
"                  o.....Xo        X..O            ",
"                   oooooo   XXXo  X..O            ",
"                            ...o  X..O            ",
"                            X..o  X..O            "
};
