/* XPM */
static char *result[] = {
/* columns rows colors chars-per-pixel */
"50 50 46 1 ",
"  c black",
". c #98326F",
"X c #C53879",
"o c #190A17",
"O c #FF5779",
"+ c #762E66",
"@ c #6A2D65",
"# c #C9397A",
"$ c #682C63",
"% c #652B62",
"& c #251023",
"* c #9B336F",
"= c #461D42",
"- c #832F69",
"; c #51214C",
": c #A23471",
"> c #050205",
", c #381735",
"< c #CB397A",
"1 c #F15079",
"2 c #A93572",
"3 c #8A336A",
"4 c #F85578",
"5 c #100710",
"6 c #CA397A",
"7 c #B83975",
"8 c #CD4A73",
"9 c #62295D",
"0 c #A53D6C",
"q c #AE3573",
"w c #93386A",
"e c #C34571",
"r c #DF467A",
"t c #D33F7A",
"y c #FA677A",
"u c #FEEB8B",
"i c #3F1A3B",
"p c #D6667E",
"a c #BB4370",
"s c #020101",
"d c #E44F75",
"f c #62264C",
"g c #FED488",
"h c #6E2A4F",
"j c #FBE18A",
"k c #FBCC87",
/* pixels */
"                                                  ",
"                                                  ",
"                                                  ",
"                                                  ",
"                                                  ",
"                                                  ",
"                                                  ",
"                                                  ",
"                      >>>>>>                      ",
"                     5;;;;;;5                     ",
"                     o9@@@@9o                     ",
"                     o9@$$@9o                     ",
"                  o==fe8888ef==o                  ",
"                  &$$34OOOO43$$&                  ",
"                  &%%34OOOO43%%&                  ",
"            &,,,,,;**2rrrrrreaaf,,,,,&            ",
"            ,@@@@$3#<6#####<1OOw$@@@@i            ",
"            ,$%%%%-#<6#####<1OOw%%%%$,            ",
"         o&&h000000::2######eee000000h&&o         ",
"        >=@$aOOOOO8$%+X####X+%$8OOOOOa$@=s        ",
"         =$%aOOOOO8$%+X####X+%$8OOOOOa%$=         ",
"     sooof--e111118ww0ppppppw--811111ewwhooos     ",
"     >;$%2#X#66666r44yjuuuujpXX#66666r4O8$%;>     ",
"     >;@$q<6######tOOyuuuuujp#6######rOO8@@;>     ",
"     >;@$2XXX#####tddykggggk877X#####t11e@@;>     ",
"     >;@$3:*76###6q++wyyyyyy3@+q<###67::w$@;>     ",
"     >;@$3**76###<2$%34OOOO43%$2<###67.*3$@;>     ",
"     >;99-..qXXXXX2+@3144441w++2XXXXXq..-99;>     ",
"      555;+@3:::::2777ttttttddd7:::::3@+;555      ",
"         =@$-****.2666#####<1OOa.****-$@=         ",
"        s=$%-*....2########<1447....*-%$=s        ",
"         ooo;+++++-22q######7773+++++;oo5         ",
"            ,@$$$%+..:X####X:..+%$$$@, s>         ",
"            i@$$$$+**:X####X:**+$$$$@i            ",
"            o&&&&&=++-2qqqq2-++i&&&&&o            ",
"             >>>> &%$+......+$%& s>>s             ",
"                  &$@+.****.+@$&                  ",
"                  5,,=------=,,5                  ",
"                     o9$$$$9o                     ",
"                     o9@@@@9o                     ",
"                     5======5                     ",
"                                                  ",
"                                                  ",
"                                                  ",
"                                                  ",
"                                                  ",
"                                                  ",
"                                                  ",
"                                                  ",
"                                                  "
};
